<svg xmlns="http://www.w3.org/2000/svg" xmlns:xlink="http://www.w3.org/1999/xlink" version="1.1" id="svg-7073" x="0px" y="0px" viewBox="0 0 512 512" style="enable-background:new 0 0 512 512;" xml:space="preserve" class="u-svg-content">
<path fill="#1847b8" d="m201 12.714v184.286h267v-184.286c0-7.022-5.692-12.714-12.714-12.714h-241.572c-7.022 0-12.714 5.692-12.714 12.714zm63.89 33.131h70.271c8.284 0 15 6.716 15 15s-6.716 15-15 15h-70.271c-8.284 0-15-6.716-15-15s6.715-15 15-15zm0 75.142h139.22c8.284 0 15 6.716 15 15s-6.716 15-15 15h-139.22c-8.284 0-15-6.716-15-15s6.715-15 15-15z"></path><path fill="#1847b8" d="m472 227h-275c-22.091 0-40 17.909-40 40v205c0 22.091 17.909 40 40 40h275c22.091 0 40-17.909 40-40v-205c0-22.091-17.909-40-40-40zm-207.5 217.5h-20c-8.284 0-15-6.716-15-15s6.716-15 15-15h20c8.284 0 15 6.716 15 15s-6.716 15-15 15zm0-60h-20c-8.284 0-15-6.716-15-15s6.716-15 15-15h20c8.284 0 15 6.716 15 15s-6.716 15-15 15zm0-60h-20c-8.284 0-15-6.716-15-15s6.716-15 15-15h20c8.284 0 15 6.716 15 15s-6.716 15-15 15zm80 120h-20c-8.284 0-15-6.716-15-15s6.716-15 15-15h20c8.284 0 15 6.716 15 15s-6.716 15-15 15zm0-60h-20c-8.284 0-15-6.716-15-15s6.716-15 15-15h20c8.284 0 15 6.716 15 15s-6.716 15-15 15zm0-60h-20c-8.284 0-15-6.716-15-15s6.716-15 15-15h20c8.284 0 15 6.716 15 15s-6.716 15-15 15zm80 120h-20c-8.284 0-15-6.716-15-15s6.716-15 15-15h20c8.284 0 15 6.716 15 15s-6.716 15-15 15zm0-60h-20c-8.284 0-15-6.716-15-15s6.716-15 15-15h20c8.284 0 15 6.716 15 15s-6.716 15-15 15zm0-60h-20c-8.284 0-15-6.716-15-15s6.716-15 15-15h20c8.284 0 15 6.716 15 15s-6.716 15-15 15z"></path><path fill="#1847b8" d="m87 227h-47c-22.091 0-40 17.909-40 40v205c0 22.091 17.909 40 40 40h47c22.091 0 40-17.909 40-40v-205c0-22.091-17.909-40-40-40z"></path>
</svg>